HIERARCHY
ROOT root
{
	OFFSET 0.000000 0.000000 0.000000
	CHANNELS 6 Xposition Yposition Zposition Zrotation Yrotation Xrotation
	JOINT lhip
	{
		OFFSET 0.058581 -0.082280 -0.017664
		CHANNELS 3 Zrotation Yrotation Xrotation
		JOINT lknee
		{
			OFFSET 0.043451 -0.386469 0.008037
			CHANNELS 3 Zrotation Yrotation Xrotation
			JOINT lankle
			{
				OFFSET -0.014790 -0.426874 -0.037428
				CHANNELS 3 Zrotation Yrotation Xrotation
				JOINT ltoe
				{
					OFFSET 0.041054 -0.060286 0.122042
					CHANNELS 3 Zrotation Yrotation Xrotation
					End Site
					{
						OFFSET 0.000000 0.000000 0.000000
					}
				}
			}
		}
	}
	JOINT rhip
	{
		OFFSET -0.060310 -0.090513 -0.013543
		CHANNELS 3 Zrotation Yrotation Xrotation
		JOINT rknee
		{
			OFFSET -0.043257 -0.383688 -0.004843
			CHANNELS 3 Zrotation Yrotation Xrotation
			JOINT rankle
			{
				OFFSET 0.019056 -0.420046 -0.034562
				CHANNELS 3 Zrotation Yrotation Xrotation
				JOINT rtoe
				{
					OFFSET -0.034840 -0.062106 0.130323
					CHANNELS 3 Zrotation Yrotation Xrotation
					End Site
					{
						OFFSET 0.000000 0.000000 0.000000
					}
				}
			}
		}
	}
	JOINT lowerback
	{
		OFFSET 0.004439 0.124404 -0.038385
		CHANNELS 3 Zrotation Yrotation Xrotation
		JOINT upperback
		{
			OFFSET 0.004488 0.137956 0.026820
			CHANNELS 3 Zrotation Yrotation Xrotation
			JOINT chest
			{
				OFFSET -0.002265 0.056032 0.002855
				CHANNELS 3 Zrotation Yrotation Xrotation
				JOINT lowerneck
				{
					OFFSET -0.013390 0.211636 -0.033468
					CHANNELS 3 Zrotation Yrotation Xrotation
					JOINT upperneck
					{
						OFFSET 0.010113 0.088937 0.050410
						CHANNELS 3 Zrotation Yrotation Xrotation
						End Site
						{
							OFFSET 0.000000 0.000000 0.000000
						}
					}
				}
				JOINT lclavicle
				{
					OFFSET 0.071702 0.114000 -0.018898
					CHANNELS 3 Zrotation Yrotation Xrotation
					JOINT lshoulder
					{
						OFFSET 0.122921 0.045205 -0.019046
						CHANNELS 3 Zrotation Yrotation Xrotation
						JOINT lelbow
						{
							OFFSET 0.255332 -0.015649 -0.022946
							CHANNELS 3 Zrotation Yrotation Xrotation
							JOINT lwrist
							{
								OFFSET 0.265709 0.012698 -0.007375
								CHANNELS 3 Zrotation Yrotation Xrotation
								End Site
								{
									OFFSET 0.000000 0.000000 0.000000
								}
							}
						}
					}
				}
				JOINT rclavicle
				{
					OFFSET -0.082954 0.112472 -0.023707
					CHANNELS 3 Zrotation Yrotation Xrotation
					JOINT rshoulder
					{
						OFFSET -0.113228 0.046853 -0.008472
						CHANNELS 3 Zrotation Yrotation Xrotation
						JOINT relbow
						{
							OFFSET -0.260127 -0.014369 -0.031269
							CHANNELS 3 Zrotation Yrotation Xrotation
							JOINT rwrist
							{
								OFFSET -0.269108 0.006794 -0.006027
								CHANNELS 3 Zrotation Yrotation Xrotation
								End Site
								{
									OFFSET 0.000000 0.000000 0.000000
								}
							}
						}
					}
				}
			}
		}
	}
}
MOTION
Frames: 11
Frame Time: 0.033333
-0.005739 0.187221 1.011289 174.311110 -0.020902 96.870731 1.433333 1.498740 -8.735046 1.298527 11.553723 2.541150 -0.111899 7.110266 -5.789081 0.000000 -0.000000 0.000000 -8.297554 -1.782817 -14.560027 -0.371655 -5.216186 7.415877 8.282047 1.886200 0.546792 0.000000 -0.000000 0.000000 2.279592 -0.613309 5.496656 4.602001 -6.413029 6.484379 0.952639 -0.515917 -6.086963 -9.122123 0.463443 10.758983 -0.380825 -6.272784 -11.833011 -0.255728 -15.442655 -5.752002 -60.938907 -35.755330 21.515378 144.791356 -56.769470 -119.576011 -10.010004 -24.242129 -14.535280 2.442259 15.959694 -5.367251 41.667121 31.336758 5.148878 -154.899633 46.157194 -131.720088 6.594988 20.571587 -4.430321 
-0.002927 0.192282 1.010356 171.096483 0.058993 96.671667 1.338125 2.302228 -7.413586 1.512658 12.746583 1.962921 -0.064919 7.841149 -6.126960 0.000000 -0.000000 0.000000 -8.124886 -0.805113 -14.772974 -0.205575 -3.739013 7.419604 8.072283 2.637832 0.408129 0.000000 -0.000000 0.000000 3.107221 -2.156487 4.981493 4.957988 -7.260937 6.052503 0.775360 -0.749976 -6.182671 -9.829664 -0.489906 11.035596 -0.808859 -5.723152 -11.552408 -2.089634 -15.504376 -5.002423 -59.806492 -33.747145 21.307213 149.629573 -55.817240 -124.009972 -8.362789 -24.954866 -16.119629 2.193024 15.236416 -5.759995 42.216539 30.752638 6.189141 -155.812069 45.420392 -135.028694 5.840009 22.044079 -10.223706 
0.000215 0.196418 1.009829 168.092025 0.206846 96.619227 1.419006 2.941348 -6.695332 1.686141 13.881171 2.179376 0.154472 8.602372 -6.746298 0.000000 -0.000000 0.000000 -7.943039 0.062464 -15.062154 0.094220 -2.582383 7.332837 8.064157 3.572859 0.278418 0.000000 -0.000000 0.000000 3.532975 -3.374789 4.571920 5.585433 -8.222688 5.910316 0.938508 -1.164053 -6.678614 -9.972433 -1.093097 10.645220 -1.366224 -4.974804 -11.095352 -3.242926 -15.133537 -4.533159 -59.534300 -32.436359 21.398899 154.015576 -54.774261 -127.741305 -6.338676 -23.967041 -14.614589 2.840905 14.268031 -5.992172 41.272629 30.746381 6.649645 -159.014781 45.269443 -138.377189 3.057701 22.639405 -9.185995 
0.004461 0.201170 1.009834 164.376446 0.354584 96.525682 1.514444 3.705150 -5.898458 1.799135 15.337079 2.711044 0.398665 9.670636 -7.684261 0.000000 -0.000000 0.000000 -7.742670 1.215081 -15.175011 0.469722 -1.019560 6.883799 8.255756 4.500929 0.406065 0.000000 -0.000000 0.000000 4.016685 -4.561092 4.333607 6.305287 -9.188450 4.624166 1.117731 -1.814915 -6.696540 -10.189463 -1.680154 10.235973 -1.831052 -3.763705 -10.182330 -4.374627 -15.136482 -4.127326 -59.060068 -30.770178 21.808766 157.522098 -54.075255 -131.114477 -3.989875 -23.982274 -16.249703 4.039532 13.212717 -6.429730 40.274641 30.540091 7.579206 -163.863476 45.388666 -143.004963 1.166812 22.971475 -7.596810 
0.006747 0.203502 1.009443 162.321571 0.452250 96.585581 1.555187 4.294104 -5.696178 1.879178 16.216301 3.122979 0.538598 10.071220 -8.196903 0.000000 -0.000000 0.000000 -7.644129 1.660900 -15.358126 0.725042 -0.331854 6.565686 8.420445 5.171414 0.589490 0.000000 -0.000000 0.000000 4.273673 -5.150406 4.068362 6.684499 -9.680682 3.954964 1.329948 -2.157961 -6.663784 -10.179573 -1.777541 10.084508 -2.100096 -3.231760 -9.992123 -4.602057 -15.211394 -3.946005 -59.608626 -29.754106 22.419306 158.691734 -53.667250 -132.497515 -2.764813 -23.727516 -17.050251 4.246084 12.825345 -6.694850 40.461155 30.240255 8.447408 -165.489234 45.264127 -145.120461 -0.113874 22.935737 -8.414847 
0.009379 0.206391 1.008720 159.472197 0.634090 96.633810 1.610097 5.247884 -5.170648 1.974789 17.599570 3.322273 0.588278 10.378162 -8.753532 0.000000 -0.000000 0.000000 -7.448698 2.270009 -15.337688 0.965593 0.526318 5.658937 8.731587 6.095319 1.087033 0.000000 -0.000000 0.000000 4.827886 -5.706238 3.387143 6.711853 -10.031843 4.115197 1.162652 -1.821738 -7.093616 -9.130856 -1.987993 10.052262 -2.367091 -3.206774 -9.745536 -4.541151 -15.528903 -3.239425 -59.937810 -30.022851 22.730541 159.155944 -53.277979 -132.185002 -2.987233 -23.693217 -15.993771 4.343582 12.053909 -6.935053 41.457296 29.306036 9.339763 -165.893242 44.623230 -144.820359 -1.251983 22.896377 -8.569950 
0.012061 0.207558 1.007774 157.567856 0.557918 96.576467 1.577246 5.676915 -4.687528 2.001364 18.578466 3.385698 0.550980 10.628690 -8.976585 0.000000 -0.000000 0.000000 -7.417690 2.515425 -15.064465 1.045375 1.114001 4.691289 8.910271 6.666967 1.752268 0.000000 -0.000000 0.000000 5.163819 -6.568540 3.240344 7.248617 -10.608227 3.456095 1.061724 -2.113577 -7.229577 -9.493770 -1.866937 9.825837 -2.790444 -3.138979 -9.455011 -5.020970 -14.585992 -3.393456 -60.191340 -29.788005 22.911459 159.823245 -53.254244 -132.797797 -3.163596 -23.165356 -16.691658 4.599194 11.955253 -6.453767 42.186524 29.908394 10.132531 -165.922436 44.968865 -144.474863 -1.121285 22.171948 -8.103685 
0.013433 0.209205 1.007067 155.280311 0.670707 96.700185 1.412942 6.376103 -4.013941 1.970001 19.667665 2.648661 0.555558 11.073450 -9.036609 0.000000 -0.000000 0.000000 -7.295022 3.178807 -15.667785 1.124973 1.819789 4.856452 9.132648 7.449019 1.872301 0.000000 -0.000000 0.000000 5.850286 -6.896532 2.527039 7.258486 -10.564650 3.581358 0.884392 -1.918044 -7.550441 -9.313458 -1.871956 10.017711 -3.062976 -3.062348 -9.104308 -5.246725 -14.462292 -3.449328 -60.731427 -29.764815 23.496927 159.617326 -53.738297 -132.655796 -3.357186 -23.022588 -16.430080 4.828800 11.697156 -6.386505 42.535288 30.007964 10.589661 -165.576025 45.219482 -144.613680 -0.666262 21.970535 -8.354496 
0.014858 0.209324 1.006599 153.638987 0.808853 96.605527 1.429311 7.000306 -3.424624 1.953749 20.370794 2.240705 0.622785 11.252850 -9.160964 0.000000 -0.000000 0.000000 -7.007239 4.039139 -16.224543 0.996473 2.533944 5.549930 9.127655 7.748654 1.691040 0.000000 -0.000000 0.000000 6.080813 -7.167536 2.437703 7.407707 -10.346524 3.446723 0.922756 -1.726694 -7.692849 -8.933421 -1.966612 10.109179 -3.171296 -3.034807 -8.987832 -5.316042 -14.539046 -3.501505 -61.121422 -30.027190 23.731815 159.801726 -53.782877 -132.235910 -3.563926 -22.522895 -15.291912 5.335053 11.284436 -6.579884 42.665782 30.190960 10.694852 -165.179829 45.482871 -144.653942 -0.191883 21.913385 -9.393729 
0.016320 0.209322 1.006348 152.307035 0.779842 96.460200 1.222149 7.277824 -2.666688 1.974689 20.931768 1.521895 0.663375 11.527926 -9.044243 0.000000 -0.000000 0.000000 -6.915450 4.918646 -16.617427 0.854363 3.093682 6.224805 9.181028 7.986916 1.320236 0.000000 -0.000000 0.000000 6.401321 -7.490419 2.350193 7.484141 -10.280823 3.266516 1.020050 -1.682054 -7.957610 -8.822245 -1.609011 10.102680 -3.544861 -2.859898 -8.613915 -5.037335 -14.472363 -3.597458 -61.692008 -29.818504 24.148860 159.721348 -53.364141 -132.128232 -3.021430 -22.615820 -15.633977 5.346585 11.228874 -6.730867 43.178198 30.494634 11.443927 -164.735286 45.805814 -144.486895 -0.774691 22.060273 -10.437383 
0.017525 0.209154 1.006009 151.859514 0.791339 96.484746 1.193701 7.404305 -2.364851 1.941174 21.106908 1.053514 0.541573 11.593344 -8.965404 0.000000 -0.000000 0.000000 -6.829763 5.234209 -16.656896 0.806121 3.234025 6.133054 9.184965 8.130088 1.259443 0.000000 -0.000000 0.000000 6.829281 -7.971388 2.308379 7.666359 -10.281298 2.320152 0.970247 -1.638137 -7.517863 -9.428746 -1.368962 10.151391 -3.527074 -2.423873 -8.721053 -5.247374 -14.236526 -3.808877 -61.740090 -29.424852 24.168826 159.954787 -53.150623 -132.343072 -1.587562 -22.454772 -16.534359 4.954955 11.623528 -6.226413 43.417960 30.922852 11.561684 -164.946530 45.674454 -144.861049 -1.660948 22.047245 -10.500213 
